<?xml version="1.0" standalone="no"?>
<!DOCTYPE svg PUBLIC "-//W3C//DTD SVG 20010904//EN"
 "http://www.w3.org/TR/2001/REC-SVG-20010904/DTD/svg10.dtd">
<svg version="1.0" xmlns="http://www.w3.org/2000/svg"
 width="600.000000pt" height="265.000000pt" viewBox="0 0 600.000000 265.000000"
 preserveAspectRatio="xMidYMid meet">
<metadata>
Created by potrace 1.15, written by Peter Selinger 2001-2017
</metadata>
<g transform="translate(0.000000,265.000000) scale(0.100000,-0.100000)"
fill="#000000" stroke="none">
<path d="M1100 2559 c0 -54 -2 -60 -17 -54 -91 40 -163 -15 -163 -125 0 -110
75 -169 160 -125 17 9 30 11 30 5 0 -5 11 -10 25 -10 l25 0 0 185 0 185 -30 0
-30 0 0 -61z m-12 -118 c8 -10 12 -37 10 -71 -3 -49 -6 -56 -31 -68 -57 -27
-97 35 -75 115 14 53 64 65 96 24z"/>
<path d="M1413 2509 c-28 -8 -31 -12 -24 -32 9 -24 10 -24 64 -13 42 9 67 -4
67 -35 0 -16 -8 -19 -45 -19 -51 0 -99 -20 -109 -45 -34 -89 48 -155 134 -110
17 9 30 11 30 5 0 -5 11 -10 25 -10 l25 0 0 113 c0 101 -2 116 -20 132 -23 21
-100 29 -147 14z"/>
<path d="M1728 2505 c-16 -9 -28 -11 -28 -5 0 5 -11 10 -25 10 l-25 0 0 -130
0 -130 30 0 30 0 0 88 c0 93 8 115 47 127 15 4 28 0 42 -14 18 -18 21 -34 21
-111 l0 -90 30 0 30 0 0 109 c0 90 -3 113 -18 131 -23 29 -96 37 -134 15z"/>
<path d="M1994 2511 c-50 -22 -67 -81 -39 -134 11 -22 12 -33 3 -53 -9 -18 -9
-27 0 -36 8 -8 5 -17 -13 -34 -42 -39 -29 -94 26 -113 66 -23 164 -5 195 37 7
9 14 32 14 50 0 46 -28 66 -103 72 -46 4 -62 9 -62 20 0 11 15 17 49 21 62 7
89 36 84 91 -3 29 0 38 14 41 27 8 22 37 -6 37 -12 0 -50 2 -82 5 -32 3 -69 1
-80 -4z"/>
<path d="M2273 2504 c-87 -43 -82 -206 7 -251 55 -28 138 -5 164 46 20 39 20
123 0 162 -27 53 -108 74 -171 43z m94 -49 c42 -30 41 -123 -2 -151 -54 -35
-105 33 -84 111 14 51 48 67 86 40z"/>
<path d="M1240 2361 c0 -124 -3 -152 -16 -166 -10 -9 -24 -13 -36 -9 -17 5
-19 2 -16 -23 3 -24 8 -28 40 -31 29 -3 43 2 63 22 25 25 25 27 25 191 l0 165
-30 0 -30 0 0 -149z"/>
<path d="M3435 2003 c-142 -35 -233 -100 -286 -203 -32 -63 -39 -208 -14 -291
10 -33 22 -59 27 -59 4 0 8 -7 8 -15 0 -13 -52 -15 -405 -15 l-405 0 0 185 0
185 63 1 c34 0 124 0 199 -1 75 -1 169 2 207 6 l71 7 0 93 0 94 -385 0 -385 0
0 -605 0 -606 -152 3 -153 3 -75 112 c-116 172 -198 310 -188 318 2 1 25 15
52 30 154 89 219 226 196 411 -21 162 -99 253 -270 311 -35 12 -112 16 -337
20 l-293 5 0 -706 0 -706 58 0 c31 0 81 3 109 6 l53 7 0 281 0 281 110 -5 109
-5 29 -45 c16 -25 68 -110 117 -190 48 -80 96 -154 106 -166 11 -11 19 -24 19
-28 0 -37 166 -216 200 -216 11 0 61 20 110 45 l90 45 440 0 440 0 0 99 0 98
-67 7 c-38 3 -157 6 -266 5 -109 0 -201 1 -203 4 -5 5 -7 408 -2 413 2 1 242
5 533 9 l530 6 55 -23 c158 -68 230 -117 252 -171 50 -123 -16 -229 -157 -254
-95 -17 -296 16 -414 68 -24 10 -47 19 -52 19 -5 0 -9 -50 -9 -110 l0 -111 46
-19 c70 -30 146 -42 305 -47 135 -4 153 -2 235 21 129 38 210 98 256 191 45
91 49 249 9 340 -22 50 -105 145 -127 145 -6 0 -18 7 -25 16 -14 17 -230 124
-249 124 -15 0 -111 60 -144 89 -46 42 -66 97 -56 154 12 59 33 89 85 119 34
19 54 23 130 23 50 -1 104 -3 120 -7 27 -5 142 -44 186 -62 13 -6 20 1 29 28
l12 36 289 0 289 0 0 -604 0 -603 53 -7 c28 -3 78 -6 110 -6 l57 0 0 610 0
610 200 0 200 0 0 95 0 94 -697 5 c-384 3 -756 7 -828 10 -71 2 -139 2 -150
-1z m903 -41 l742 -4 0 -64 0 -64 -200 0 -200 0 0 -605 0 -605 -80 0 -80 0 0
605 0 605 -320 0 c-272 0 -320 -2 -320 -14 0 -27 -18 -27 -107 0 -71 22 -110
27 -198 28 -97 1 -116 -2 -158 -23 -73 -35 -102 -85 -103 -177 -2 -81 9 -110
59 -162 34 -35 140 -92 283 -152 102 -42 115 -51 196 -131 65 -66 88 -123 88
-226 0 -136 -67 -248 -180 -300 -94 -44 -147 -54 -287 -54 -126 0 -158 4 -260
33 l-73 21 0 70 c0 62 2 68 18 62 151 -58 368 -82 474 -51 68 19 132 77 147
133 38 134 -18 231 -177 309 -31 15 -73 36 -93 46 -34 17 -75 18 -613 18
l-576 0 0 -250 0 -250 275 0 275 0 0 -70 0 -70 -439 0 -439 0 -82 -40 -82 -41
-36 28 c-21 15 -43 34 -50 43 -23 28 -127 182 -152 225 -14 24 -68 113 -120
199 l-95 155 -122 1 c-67 0 -128 3 -137 6 -14 6 -16 -24 -16 -285 l0 -291 -80
0 -80 0 0 670 0 670 168 0 c216 -1 342 -13 438 -41 144 -43 225 -156 227 -319
2 -121 -18 -174 -90 -251 -48 -50 -77 -71 -123 -90 -33 -13 -60 -27 -60 -31 0
-4 24 -46 53 -94 28 -48 62 -105 74 -127 13 -21 55 -88 95 -148 l72 -109 183
0 183 0 0 605 0 605 355 0 355 0 0 -65 0 -65 -275 0 -275 0 0 -224 0 -224 458
5 c251 3 459 7 461 9 2 2 -7 18 -21 36 -57 75 -76 223 -41 324 24 70 109 154
188 183 62 24 188 43 215 33 8 -4 349 -8 758 -10z"/>
<path d="M1100 1570 l0 -265 132 3 c162 3 222 14 280 51 61 39 87 85 95 164
10 107 -3 173 -43 217 -60 67 -115 83 -302 89 l-162 6 0 -265z m307 209 c132
-26 198 -138 159 -271 -34 -116 -95 -149 -299 -157 l-137 -6 0 225 0 225 112
-3 c62 -1 136 -7 165 -13z"/>
<path d="M2612 397 c-13 -14 -22 -36 -22 -54 0 -25 -5 -32 -25 -37 -16 -4 -25
-13 -25 -26 0 -15 7 -20 25 -20 l25 0 0 -105 0 -105 30 0 30 0 0 105 0 105 30
0 c25 0 30 4 30 25 0 21 -5 25 -30 25 -23 0 -30 5 -30 19 0 26 26 44 54 37 19
-5 25 -1 29 16 9 32 1 38 -52 38 -37 0 -52 -5 -69 -23z"/>
<path d="M4870 235 l0 -185 29 0 c28 0 30 2 33 47 2 25 8 48 14 50 7 2 28 -19
49 -47 33 -45 40 -50 76 -50 l40 0 -47 63 c-26 34 -52 67 -57 74 -6 8 7 29 44
68 l52 55 -41 0 c-36 0 -45 -6 -86 -51 l-46 -51 0 106 0 106 -30 0 -30 0 0
-185z"/>
<path d="M2836 299 c-21 -17 -26 -18 -26 -5 0 10 -9 16 -25 16 l-25 0 0 -130
0 -130 30 0 30 0 0 83 c0 74 3 86 23 105 13 12 35 22 50 22 23 0 27 4 27 30 0
26 -3 30 -29 30 -15 0 -40 -9 -55 -21z"/>
<path d="M3003 309 c-28 -8 -31 -12 -24 -32 9 -24 10 -24 64 -13 42 9 67 -4
67 -35 0 -16 -8 -19 -45 -19 -51 0 -99 -20 -109 -45 -34 -89 48 -155 134 -110
17 9 30 11 30 5 0 -5 11 -10 25 -10 l25 0 0 113 c0 101 -2 116 -20 132 -23 21
-100 29 -147 14z"/>
<path d="M3318 306 c-16 -8 -28 -11 -28 -5 0 5 -11 9 -25 9 l-25 0 0 -130 0
-130 30 0 30 0 0 84 c0 99 4 114 38 127 19 7 29 6 43 -7 16 -14 19 -32 19
-111 l0 -93 30 0 30 0 0 81 c0 44 5 89 10 99 16 30 46 43 70 30 18 -10 20 -21
20 -110 l0 -100 35 0 35 0 0 88 c0 48 -5 103 -10 123 -16 56 -79 76 -141 44
-27 -14 -32 -14 -51 0 -28 19 -75 19 -110 1z"/>
<path d="M3743 304 c-71 -35 -86 -166 -26 -226 34 -34 94 -46 153 -31 28 7 36
15 38 37 3 24 1 28 -14 22 -10 -4 -37 -10 -60 -13 -34 -4 -46 -1 -63 16 -41
41 -29 51 64 51 l85 0 0 33 c0 43 -29 99 -60 114 -34 17 -78 16 -117 -3z"/>
<path d="M4413 304 c-63 -31 -84 -140 -40 -205 39 -58 94 -73 162 -45 43 18
65 61 65 126 0 65 -22 108 -65 126 -44 18 -82 17 -122 -2z m94 -49 c42 -30 41
-123 -2 -151 -54 -35 -105 33 -84 111 14 51 48 67 86 40z"/>
<path d="M4736 299 c-21 -17 -26 -18 -26 -5 0 10 -9 16 -25 16 l-25 0 0 -130
0 -130 30 0 30 0 0 83 c0 74 3 86 23 105 13 12 35 22 50 22 23 0 27 4 27 30 0
26 -3 30 -29 30 -15 0 -40 -9 -55 -21z"/>
<path d="M3943 298 c2 -7 19 -66 37 -131 l33 -118 36 3 36 3 26 93 25 94 25
-94 25 -93 36 -3 c28 -2 38 1 42 15 34 116 66 232 66 238 0 3 -14 5 -32 3 -31
-3 -33 -5 -54 -88 -12 -47 -24 -78 -27 -70 -3 8 -14 47 -25 85 -18 69 -19 70
-54 73 -36 3 -36 3 -52 -52 -9 -31 -19 -69 -23 -86 -8 -42 -16 -29 -38 63
l-18 77 -35 0 c-23 0 -33 -4 -29 -12z"/>
</g>
</svg>
